<svg xmlns="http://www.w3.org/2000/svg" xmlns:xlink="http://www.w3.org/1999/xlink" width="150" zoomAndPan="magnify" viewBox="0 0 112.5 30.000001" height="40" preserveAspectRatio="xMidYMid meet" version="1.0"><defs><g/><clipPath id="bdb017c241"><path d="M 1.574219 0 L 110.445312 0 L 110.445312 29.03125 L 1.574219 29.03125 Z M 1.574219 0 " clip-rule="nonzero"/></clipPath><clipPath id="c945dabf63"><rect x="0" width="110" y="0" height="30"/></clipPath></defs><g clip-path="url(#bdb017c241)"><g transform="matrix(1, 0, 0, 1, 1, 0.000000000000005773)"><g clip-path="url(#c945dabf63)"><g fill="#f9fff5" fill-opacity="1"><g transform="translate(1.291074, 23.19492)"><g><path d="M 22.984375 -11 L 14.375 -11 C 14.289062 -11.695312 14.070312 -12.242188 13.71875 -12.640625 C 13.363281 -13.046875 12.765625 -13.25 11.921875 -13.25 C 11.140625 -13.25 10.566406 -13.078125 10.203125 -12.734375 C 9.847656 -12.398438 9.625 -11.921875 9.53125 -11.296875 C 9.445312 -10.671875 9.40625 -9.914062 9.40625 -9.03125 C 9.40625 -8.164062 9.445312 -7.414062 9.53125 -6.78125 C 9.625 -6.15625 9.847656 -5.671875 10.203125 -5.328125 C 10.566406 -4.984375 11.140625 -4.8125 11.921875 -4.8125 C 12.765625 -4.8125 13.363281 -5.007812 13.71875 -5.40625 C 14.070312 -5.800781 14.289062 -6.359375 14.375 -7.078125 L 22.984375 -7.078125 C 22.742188 -5.472656 22.226562 -4.125 21.4375 -3.03125 C 20.644531 -1.9375 19.476562 -1.109375 17.9375 -0.546875 C 16.40625 0.015625 14.398438 0.296875 11.921875 0.296875 C 8.085938 0.296875 5.257812 -0.5 3.4375 -2.09375 C 1.625 -3.6875 0.71875 -6 0.71875 -9.03125 C 0.71875 -12.070312 1.625 -14.390625 3.4375 -15.984375 C 5.257812 -17.578125 8.085938 -18.375 11.921875 -18.375 C 14.398438 -18.375 16.40625 -18.09375 17.9375 -17.53125 C 19.476562 -16.96875 20.644531 -16.140625 21.4375 -15.046875 C 22.226562 -13.953125 22.742188 -12.601562 22.984375 -11 Z M 22.984375 -11 "/></g></g></g><g fill="#f9fff5" fill-opacity="1"><g transform="translate(25.149366, 23.19492)"><g><path d="M 22.890625 0 L 14.21875 0 L 14.21875 -6.484375 L 10.484375 -6.484375 L 10.484375 0 L 1.8125 0 L 1.8125 -15.0625 L 0.90625 -18.078125 L 10.484375 -18.078125 L 10.484375 -11.59375 L 14.21875 -11.59375 L 14.21875 -18.078125 L 22.890625 -18.078125 Z M 22.890625 0 "/></g></g></g><g fill="#f9fff5" fill-opacity="1"><g transform="translate(49.851134, 23.19492)"><g><path d="M 35.671875 -18.078125 L 28.375 0 L 20 0 L 17.984375 -9.15625 L 15.96875 0 L 7.296875 0 L 0.296875 -18.078125 L 9.34375 -18.078125 L 11.234375 -9.03125 L 11.78125 -4.671875 L 12.328125 -9.03125 L 13.609375 -18.078125 L 22.359375 -18.078125 L 23.640625 -9.03125 L 24.1875 -4.671875 L 24.734375 -9.03125 L 26.625 -18.078125 Z M 35.671875 -18.078125 "/></g></g></g><g fill="#f9fff5" fill-opacity="1"><g transform="translate(85.819327, 23.19492)"><g><path d="M 21.546875 -5.125 L 21.546875 0 L 1.5 0 L 1.5 -5.125 L 9.1875 -12.828125 L 9.1875 -12.953125 L 1.65625 -12.953125 L 1.65625 -18.078125 L 21.390625 -18.078125 L 21.390625 -12.953125 L 13.703125 -5.234375 L 13.703125 -5.125 Z M 21.546875 -5.125 "/></g></g></g></g></g></g></svg>