<svg xmlns="http://www.w3.org/2000/svg" xmlns:xlink="http://www.w3.org/1999/xlink" width="40" zoomAndPan="magnify" viewBox="0 0 30 30.000001" height="40" preserveAspectRatio="xMidYMid meet" version="1.0"><defs><clipPath id="85e516af61"><path d="M 1.933594 0 L 28.066406 0 L 28.066406 29.03125 L 1.933594 29.03125 Z M 1.933594 0 " clip-rule="nonzero"/></clipPath></defs><path fill="#f9fff5" d="M 5.324219 10.160156 L 7.257812 10.160156 C 7.386719 10.160156 7.511719 10.183594 7.628906 10.230469 C 7.746094 10.28125 7.851562 10.351562 7.941406 10.441406 C 8.03125 10.53125 8.101562 10.636719 8.152344 10.753906 C 8.203125 10.875 8.226562 10.996094 8.226562 11.125 L 8.226562 13.0625 C 8.226562 13.191406 8.203125 13.3125 8.152344 13.433594 C 8.101562 13.550781 8.03125 13.65625 7.941406 13.746094 C 7.851562 13.835938 7.746094 13.90625 7.628906 13.957031 C 7.511719 14.003906 7.386719 14.027344 7.257812 14.027344 L 5.324219 14.027344 C 5.195312 14.027344 5.070312 14.003906 4.953125 13.957031 C 4.832031 13.90625 4.730469 13.835938 4.636719 13.746094 C 4.546875 13.65625 4.476562 13.550781 4.429688 13.433594 C 4.378906 13.3125 4.355469 13.191406 4.355469 13.0625 L 4.355469 11.125 C 4.355469 10.996094 4.378906 10.875 4.429688 10.753906 C 4.476562 10.636719 4.546875 10.53125 4.636719 10.441406 C 4.730469 10.351562 4.832031 10.28125 4.953125 10.230469 C 5.070312 10.183594 5.195312 10.160156 5.324219 10.160156 Z M 5.324219 10.160156 " fill-opacity="1" fill-rule="nonzero"/><path fill="#f9fff5" d="M 11.128906 10.160156 L 13.066406 10.160156 C 13.191406 10.160156 13.316406 10.183594 13.433594 10.230469 C 13.554688 10.28125 13.65625 10.351562 13.75 10.441406 C 13.839844 10.53125 13.910156 10.636719 13.957031 10.753906 C 14.007812 10.875 14.03125 10.996094 14.03125 11.125 L 14.03125 13.0625 C 14.03125 13.191406 14.007812 13.3125 13.957031 13.433594 C 13.910156 13.550781 13.839844 13.65625 13.75 13.746094 C 13.65625 13.835938 13.554688 13.90625 13.433594 13.957031 C 13.316406 14.003906 13.191406 14.027344 13.066406 14.027344 L 11.128906 14.027344 C 11 14.027344 10.878906 14.003906 10.757812 13.957031 C 10.640625 13.90625 10.535156 13.835938 10.445312 13.746094 C 10.355469 13.65625 10.285156 13.550781 10.234375 13.433594 C 10.1875 13.3125 10.160156 13.191406 10.160156 13.0625 L 10.160156 11.125 C 10.160156 10.996094 10.1875 10.875 10.234375 10.753906 C 10.285156 10.636719 10.355469 10.53125 10.445312 10.441406 C 10.535156 10.351562 10.640625 10.28125 10.757812 10.230469 C 10.878906 10.183594 11 10.160156 11.128906 10.160156 Z M 11.128906 10.160156 " fill-opacity="1" fill-rule="nonzero"/><path fill="#f9fff5" d="M 16.933594 10.160156 L 18.871094 10.160156 C 19 10.160156 19.121094 10.183594 19.242188 10.230469 C 19.359375 10.28125 19.464844 10.351562 19.554688 10.441406 C 19.644531 10.53125 19.714844 10.636719 19.765625 10.753906 C 19.8125 10.875 19.839844 10.996094 19.839844 11.125 L 19.839844 13.0625 C 19.839844 13.191406 19.8125 13.3125 19.765625 13.433594 C 19.714844 13.550781 19.644531 13.65625 19.554688 13.746094 C 19.464844 13.835938 19.359375 13.90625 19.242188 13.957031 C 19.121094 14.003906 19 14.027344 18.871094 14.027344 L 16.933594 14.027344 C 16.808594 14.027344 16.683594 14.003906 16.566406 13.957031 C 16.445312 13.90625 16.34375 13.835938 16.25 13.746094 C 16.160156 13.65625 16.089844 13.550781 16.042969 13.433594 C 15.992188 13.3125 15.96875 13.191406 15.96875 13.0625 L 15.96875 11.125 C 15.96875 10.996094 15.992188 10.875 16.042969 10.753906 C 16.089844 10.636719 16.160156 10.53125 16.25 10.441406 C 16.34375 10.351562 16.445312 10.28125 16.566406 10.230469 C 16.683594 10.183594 16.808594 10.160156 16.933594 10.160156 Z M 16.933594 10.160156 " fill-opacity="1" fill-rule="nonzero"/><path fill="#f9fff5" d="M 22.742188 10.160156 L 24.675781 10.160156 C 24.804688 10.160156 24.929688 10.183594 25.046875 10.230469 C 25.167969 10.28125 25.269531 10.351562 25.363281 10.441406 C 25.453125 10.53125 25.523438 10.636719 25.570312 10.753906 C 25.621094 10.875 25.644531 10.996094 25.644531 11.125 L 25.644531 13.0625 C 25.644531 13.191406 25.621094 13.3125 25.570312 13.433594 C 25.523438 13.550781 25.453125 13.65625 25.363281 13.746094 C 25.269531 13.835938 25.167969 13.90625 25.046875 13.957031 C 24.929688 14.003906 24.804688 14.027344 24.675781 14.027344 L 22.742188 14.027344 C 22.613281 14.027344 22.488281 14.003906 22.371094 13.957031 C 22.253906 13.90625 22.148438 13.835938 22.058594 13.746094 C 21.96875 13.65625 21.898438 13.550781 21.847656 13.433594 C 21.796875 13.3125 21.773438 13.191406 21.773438 13.0625 L 21.773438 11.125 C 21.773438 10.996094 21.796875 10.875 21.847656 10.753906 C 21.898438 10.636719 21.96875 10.53125 22.058594 10.441406 C 22.148438 10.351562 22.253906 10.28125 22.371094 10.230469 C 22.488281 10.183594 22.613281 10.160156 22.742188 10.160156 Z M 22.742188 10.160156 " fill-opacity="1" fill-rule="nonzero"/><path fill="#f9fff5" d="M 5.324219 15.480469 L 7.257812 15.480469 C 7.386719 15.480469 7.511719 15.503906 7.628906 15.554688 C 7.746094 15.605469 7.851562 15.671875 7.941406 15.765625 C 8.03125 15.855469 8.101562 15.960938 8.152344 16.078125 C 8.203125 16.195312 8.226562 16.320312 8.226562 16.449219 L 8.226562 18.382812 C 8.226562 18.511719 8.203125 18.636719 8.152344 18.753906 C 8.101562 18.871094 8.03125 18.976562 7.941406 19.070312 C 7.851562 19.160156 7.746094 19.230469 7.628906 19.277344 C 7.511719 19.328125 7.386719 19.351562 7.257812 19.351562 L 5.324219 19.351562 C 5.195312 19.351562 5.070312 19.328125 4.953125 19.277344 C 4.832031 19.230469 4.730469 19.160156 4.636719 19.070312 C 4.546875 18.976562 4.476562 18.871094 4.429688 18.753906 C 4.378906 18.636719 4.355469 18.511719 4.355469 18.382812 L 4.355469 16.449219 C 4.355469 16.320312 4.378906 16.195312 4.429688 16.078125 C 4.476562 15.960938 4.546875 15.855469 4.636719 15.765625 C 4.730469 15.671875 4.832031 15.605469 4.953125 15.554688 C 5.070312 15.503906 5.195312 15.480469 5.324219 15.480469 Z M 5.324219 15.480469 " fill-opacity="1" fill-rule="nonzero"/><path fill="#f9fff5" d="M 11.128906 15.238281 L 13.066406 15.238281 C 13.191406 15.238281 13.316406 15.261719 13.433594 15.3125 C 13.554688 15.363281 13.65625 15.429688 13.75 15.523438 C 13.839844 15.613281 13.910156 15.71875 13.957031 15.835938 C 14.007812 15.953125 14.03125 16.078125 14.03125 16.207031 L 14.03125 18.140625 C 14.03125 18.269531 14.007812 18.394531 13.957031 18.511719 C 13.910156 18.632812 13.839844 18.734375 13.75 18.828125 C 13.65625 18.917969 13.554688 18.988281 13.433594 19.035156 C 13.316406 19.085938 13.191406 19.109375 13.066406 19.109375 L 11.128906 19.109375 C 11 19.109375 10.878906 19.085938 10.757812 19.035156 C 10.640625 18.988281 10.535156 18.917969 10.445312 18.828125 C 10.355469 18.734375 10.285156 18.632812 10.234375 18.511719 C 10.1875 18.394531 10.160156 18.269531 10.160156 18.140625 L 10.160156 16.207031 C 10.160156 16.078125 10.1875 15.953125 10.234375 15.835938 C 10.285156 15.71875 10.355469 15.613281 10.445312 15.523438 C 10.535156 15.429688 10.640625 15.363281 10.757812 15.3125 C 10.878906 15.261719 11 15.238281 11.128906 15.238281 Z M 11.128906 15.238281 " fill-opacity="1" fill-rule="nonzero"/><path fill="#f9fff5" d="M 16.933594 15.238281 L 18.871094 15.238281 C 19 15.238281 19.121094 15.261719 19.242188 15.3125 C 19.359375 15.363281 19.464844 15.429688 19.554688 15.523438 C 19.644531 15.613281 19.714844 15.71875 19.765625 15.835938 C 19.8125 15.953125 19.839844 16.078125 19.839844 16.207031 L 19.839844 18.140625 C 19.839844 18.269531 19.8125 18.394531 19.765625 18.511719 C 19.714844 18.632812 19.644531 18.734375 19.554688 18.828125 C 19.464844 18.917969 19.359375 18.988281 19.242188 19.035156 C 19.121094 19.085938 19 19.109375 18.871094 19.109375 L 16.933594 19.109375 C 16.808594 19.109375 16.683594 19.085938 16.566406 19.035156 C 16.445312 18.988281 16.34375 18.917969 16.25 18.828125 C 16.160156 18.734375 16.089844 18.632812 16.042969 18.511719 C 15.992188 18.394531 15.96875 18.269531 15.96875 18.140625 L 15.96875 16.207031 C 15.96875 16.078125 15.992188 15.953125 16.042969 15.835938 C 16.089844 15.71875 16.160156 15.613281 16.25 15.523438 C 16.34375 15.429688 16.445312 15.363281 16.566406 15.3125 C 16.683594 15.261719 16.808594 15.238281 16.933594 15.238281 Z M 16.933594 15.238281 " fill-opacity="1" fill-rule="nonzero"/><path fill="#f9fff5" d="M 22.742188 15.238281 L 24.675781 15.238281 C 24.804688 15.238281 24.929688 15.261719 25.046875 15.3125 C 25.167969 15.363281 25.269531 15.429688 25.363281 15.523438 C 25.453125 15.613281 25.523438 15.71875 25.570312 15.835938 C 25.621094 15.953125 25.644531 16.078125 25.644531 16.207031 L 25.644531 18.140625 C 25.644531 18.269531 25.621094 18.394531 25.570312 18.511719 C 25.523438 18.632812 25.453125 18.734375 25.363281 18.828125 C 25.269531 18.917969 25.167969 18.988281 25.046875 19.035156 C 24.929688 19.085938 24.804688 19.109375 24.675781 19.109375 L 22.742188 19.109375 C 22.613281 19.109375 22.488281 19.085938 22.371094 19.035156 C 22.253906 18.988281 22.148438 18.917969 22.058594 18.828125 C 21.96875 18.734375 21.898438 18.632812 21.847656 18.511719 C 21.796875 18.394531 21.773438 18.269531 21.773438 18.140625 L 21.773438 16.207031 C 21.773438 16.078125 21.796875 15.953125 21.847656 15.835938 C 21.898438 15.71875 21.96875 15.613281 22.058594 15.523438 C 22.148438 15.429688 22.253906 15.363281 22.371094 15.3125 C 22.488281 15.261719 22.613281 15.238281 22.742188 15.238281 Z M 22.742188 15.238281 " fill-opacity="1" fill-rule="nonzero"/><path fill="#f9fff5" d="M 5.324219 20.320312 L 7.257812 20.320312 C 7.386719 20.320312 7.511719 20.34375 7.628906 20.394531 C 7.746094 20.441406 7.851562 20.511719 7.941406 20.601562 C 8.03125 20.695312 8.101562 20.796875 8.152344 20.917969 C 8.203125 21.035156 8.226562 21.160156 8.226562 21.289062 L 8.226562 23.222656 C 8.226562 23.351562 8.203125 23.472656 8.152344 23.59375 C 8.101562 23.710938 8.03125 23.816406 7.941406 23.90625 C 7.851562 23.996094 7.746094 24.066406 7.628906 24.117188 C 7.511719 24.164062 7.386719 24.191406 7.257812 24.191406 L 5.324219 24.191406 C 5.195312 24.191406 5.070312 24.164062 4.953125 24.117188 C 4.832031 24.066406 4.730469 23.996094 4.636719 23.90625 C 4.546875 23.816406 4.476562 23.710938 4.429688 23.59375 C 4.378906 23.472656 4.355469 23.351562 4.355469 23.222656 L 4.355469 21.289062 C 4.355469 21.160156 4.378906 21.035156 4.429688 20.917969 C 4.476562 20.796875 4.546875 20.695312 4.636719 20.601562 C 4.730469 20.511719 4.832031 20.441406 4.953125 20.394531 C 5.070312 20.34375 5.195312 20.320312 5.324219 20.320312 Z M 5.324219 20.320312 " fill-opacity="1" fill-rule="nonzero"/><path fill="#f9fff5" d="M 11.128906 20.320312 L 13.066406 20.320312 C 13.191406 20.320312 13.316406 20.34375 13.433594 20.394531 C 13.554688 20.441406 13.65625 20.511719 13.75 20.601562 C 13.839844 20.695312 13.910156 20.796875 13.957031 20.917969 C 14.007812 21.035156 14.03125 21.160156 14.03125 21.289062 L 14.03125 23.222656 C 14.03125 23.351562 14.007812 23.472656 13.957031 23.59375 C 13.910156 23.710938 13.839844 23.816406 13.75 23.90625 C 13.65625 23.996094 13.554688 24.066406 13.433594 24.117188 C 13.316406 24.164062 13.191406 24.191406 13.066406 24.191406 L 11.128906 24.191406 C 11 24.191406 10.878906 24.164062 10.757812 24.117188 C 10.640625 24.066406 10.535156 23.996094 10.445312 23.90625 C 10.355469 23.816406 10.285156 23.710938 10.234375 23.59375 C 10.1875 23.472656 10.160156 23.351562 10.160156 23.222656 L 10.160156 21.289062 C 10.160156 21.160156 10.1875 21.035156 10.234375 20.917969 C 10.285156 20.796875 10.355469 20.695312 10.445312 20.601562 C 10.535156 20.511719 10.640625 20.441406 10.757812 20.394531 C 10.878906 20.34375 11 20.320312 11.128906 20.320312 Z M 11.128906 20.320312 " fill-opacity="1" fill-rule="nonzero"/><path fill="#f9fff5" d="M 16.933594 20.320312 L 18.871094 20.320312 C 19 20.320312 19.121094 20.34375 19.242188 20.394531 C 19.359375 20.441406 19.464844 20.511719 19.554688 20.601562 C 19.644531 20.695312 19.714844 20.796875 19.765625 20.917969 C 19.8125 21.035156 19.839844 21.160156 19.839844 21.289062 L 19.839844 23.222656 C 19.839844 23.351562 19.8125 23.472656 19.765625 23.59375 C 19.714844 23.710938 19.644531 23.816406 19.554688 23.90625 C 19.464844 23.996094 19.359375 24.066406 19.242188 24.117188 C 19.121094 24.164062 19 24.191406 18.871094 24.191406 L 16.933594 24.191406 C 16.808594 24.191406 16.683594 24.164062 16.566406 24.117188 C 16.445312 24.066406 16.34375 23.996094 16.25 23.90625 C 16.160156 23.816406 16.089844 23.710938 16.042969 23.59375 C 15.992188 23.472656 15.96875 23.351562 15.96875 23.222656 L 15.96875 21.289062 C 15.96875 21.160156 15.992188 21.035156 16.042969 20.917969 C 16.089844 20.796875 16.160156 20.695312 16.25 20.601562 C 16.34375 20.511719 16.445312 20.441406 16.566406 20.394531 C 16.683594 20.34375 16.808594 20.320312 16.933594 20.320312 Z M 16.933594 20.320312 " fill-opacity="1" fill-rule="nonzero"/><g clip-path="url(#85e516af61)"><path fill="#f9fff5" d="M 25.644531 1.933594 L 24.195312 1.933594 L 24.195312 1.691406 C 24.195312 1.464844 24.152344 1.25 24.066406 1.042969 C 23.980469 0.835938 23.855469 0.652344 23.699219 0.492188 C 23.539062 0.335938 23.355469 0.210938 23.148438 0.125 C 22.941406 0.0390625 22.722656 -0.00390625 22.5 -0.00390625 C 22.277344 -0.00390625 22.058594 0.0390625 21.851562 0.125 C 21.644531 0.210938 21.460938 0.335938 21.300781 0.492188 C 21.144531 0.652344 21.019531 0.835938 20.933594 1.042969 C 20.847656 1.25 20.804688 1.464844 20.804688 1.691406 L 20.804688 1.933594 L 16.695312 1.933594 L 16.695312 1.691406 C 16.695312 1.464844 16.652344 1.25 16.566406 1.042969 C 16.480469 0.835938 16.355469 0.652344 16.199219 0.492188 C 16.039062 0.335938 15.855469 0.210938 15.648438 0.125 C 15.441406 0.0390625 15.222656 -0.00390625 15 -0.00390625 C 14.777344 -0.00390625 14.558594 0.0390625 14.351562 0.125 C 14.144531 0.210938 13.960938 0.335938 13.800781 0.492188 C 13.644531 0.652344 13.519531 0.835938 13.433594 1.042969 C 13.347656 1.25 13.304688 1.464844 13.304688 1.691406 L 13.304688 1.933594 L 9.195312 1.933594 L 9.195312 1.691406 C 9.195312 1.464844 9.152344 1.25 9.066406 1.042969 C 8.980469 0.835938 8.855469 0.652344 8.699219 0.492188 C 8.539062 0.335938 8.355469 0.210938 8.148438 0.125 C 7.941406 0.0390625 7.722656 -0.00390625 7.5 -0.00390625 C 7.277344 -0.00390625 7.058594 0.0390625 6.851562 0.125 C 6.644531 0.210938 6.460938 0.335938 6.300781 0.492188 C 6.144531 0.652344 6.019531 0.835938 5.933594 1.042969 C 5.847656 1.25 5.804688 1.464844 5.804688 1.691406 L 5.804688 1.933594 L 4.355469 1.933594 C 4.035156 1.933594 3.726562 1.992188 3.429688 2.117188 C 3.132812 2.238281 2.871094 2.414062 2.644531 2.640625 C 2.417969 2.867188 2.242188 3.128906 2.121094 3.425781 C 1.996094 3.722656 1.933594 4.03125 1.933594 4.351562 L 1.933594 26.609375 C 1.933594 26.929688 1.996094 27.238281 2.121094 27.535156 C 2.242188 27.832031 2.417969 28.09375 2.644531 28.320312 C 2.871094 28.546875 3.132812 28.722656 3.429688 28.84375 C 3.726562 28.96875 4.035156 29.027344 4.355469 29.027344 L 25.644531 29.027344 C 25.964844 29.027344 26.273438 28.96875 26.570312 28.84375 C 26.867188 28.722656 27.128906 28.546875 27.355469 28.320312 C 27.582031 28.09375 27.757812 27.832031 27.878906 27.535156 C 28.003906 27.238281 28.066406 26.929688 28.066406 26.609375 L 28.066406 4.351562 C 28.066406 4.03125 28.003906 3.722656 27.878906 3.425781 C 27.757812 3.128906 27.582031 2.867188 27.355469 2.640625 C 27.128906 2.414062 26.867188 2.238281 26.570312 2.117188 C 26.273438 1.992188 25.964844 1.933594 25.644531 1.933594 Z M 21.773438 1.691406 C 21.773438 1.488281 21.84375 1.320312 21.988281 1.175781 C 22.128906 1.035156 22.300781 0.964844 22.5 0.964844 C 22.699219 0.964844 22.871094 1.035156 23.011719 1.175781 C 23.15625 1.320312 23.226562 1.488281 23.226562 1.691406 L 23.226562 3.625 C 23.226562 3.828125 23.15625 3.996094 23.011719 4.140625 C 22.871094 4.28125 22.699219 4.351562 22.5 4.351562 C 22.300781 4.351562 22.128906 4.28125 21.988281 4.140625 C 21.84375 3.996094 21.773438 3.828125 21.773438 3.625 Z M 14.273438 1.691406 C 14.273438 1.488281 14.34375 1.320312 14.488281 1.175781 C 14.628906 1.035156 14.800781 0.964844 15 0.964844 C 15.199219 0.964844 15.371094 1.035156 15.511719 1.175781 C 15.65625 1.320312 15.726562 1.488281 15.726562 1.691406 L 15.726562 3.625 C 15.726562 3.828125 15.65625 3.996094 15.511719 4.140625 C 15.371094 4.28125 15.199219 4.351562 15 4.351562 C 14.800781 4.351562 14.628906 4.28125 14.488281 4.140625 C 14.34375 3.996094 14.273438 3.828125 14.273438 3.625 Z M 6.773438 1.691406 C 6.773438 1.488281 6.84375 1.320312 6.988281 1.175781 C 7.128906 1.035156 7.300781 0.964844 7.5 0.964844 C 7.699219 0.964844 7.871094 1.035156 8.011719 1.175781 C 8.15625 1.320312 8.226562 1.488281 8.226562 1.691406 L 8.226562 3.625 C 8.226562 3.828125 8.15625 3.996094 8.011719 4.140625 C 7.871094 4.28125 7.699219 4.351562 7.5 4.351562 C 7.300781 4.351562 7.128906 4.28125 6.988281 4.140625 C 6.84375 3.996094 6.773438 3.828125 6.773438 3.625 Z M 22.742188 25.445312 L 22.742188 23.222656 C 22.742188 23.03125 22.78125 22.84375 22.855469 22.667969 C 22.925781 22.492188 23.03125 22.332031 23.167969 22.199219 C 23.304688 22.0625 23.460938 21.957031 23.640625 21.882812 C 23.816406 21.808594 24 21.773438 24.195312 21.769531 L 26.414062 21.769531 Z M 27.097656 20.320312 C 27.097656 20.453125 27.050781 20.566406 26.953125 20.660156 C 26.859375 20.757812 26.746094 20.804688 26.613281 20.804688 L 24.195312 20.804688 C 23.871094 20.804688 23.5625 20.863281 23.269531 20.988281 C 22.972656 21.109375 22.710938 21.285156 22.484375 21.511719 C 22.257812 21.738281 22.082031 22 21.957031 22.296875 C 21.835938 22.59375 21.773438 22.902344 21.773438 23.222656 L 21.773438 25.640625 C 21.773438 25.777344 21.726562 25.890625 21.632812 25.984375 C 21.539062 26.078125 21.425781 26.125 21.289062 26.125 L 4.355469 26.097656 C 4.164062 26.097656 3.976562 26.058594 3.800781 25.988281 C 3.621094 25.914062 3.464844 25.808594 3.328125 25.671875 C 3.191406 25.535156 3.085938 25.378906 3.015625 25.199219 C 2.941406 25.023438 2.902344 24.835938 2.902344 24.644531 L 2.902344 8.707031 L 27.097656 8.707031 Z M 27.097656 20.320312 " fill-opacity="1" fill-rule="nonzero"/></g></svg>