<svg xmlns="http://www.w3.org/2000/svg" xmlns:xlink="http://www.w3.org/1999/xlink" width="40" zoomAndPan="magnify" viewBox="0 0 30 30.000001" height="40" preserveAspectRatio="xMidYMid meet" version="1.0"><defs><clipPath id="df624765b9"><path d="M 1.933594 1.484375 L 28.066406 1.484375 L 28.066406 27.613281 L 1.933594 27.613281 Z M 1.933594 1.484375 " clip-rule="nonzero"/></clipPath></defs><g clip-path="url(#df624765b9)"><path fill="#f9fff5" d="M 3.78125 1.484375 C 3.539062 1.480469 3.308594 1.523438 3.082031 1.613281 C 2.859375 1.703125 2.660156 1.835938 2.488281 2.003906 C 2.3125 2.175781 2.179688 2.371094 2.085938 2.59375 C 1.992188 2.820312 1.945312 3.050781 1.945312 3.292969 C 1.945312 3.535156 1.992188 3.769531 2.085938 3.992188 C 2.179688 4.214844 2.3125 4.414062 2.488281 4.582031 C 2.660156 4.753906 2.859375 4.882812 3.082031 4.972656 C 3.308594 5.0625 3.539062 5.105469 3.78125 5.105469 L 26.222656 5.105469 C 26.464844 5.105469 26.699219 5.0625 26.925781 4.972656 C 27.148438 4.882812 27.347656 4.753906 27.519531 4.582031 C 27.691406 4.414062 27.824219 4.214844 27.917969 3.992188 C 28.011719 3.769531 28.058594 3.535156 28.058594 3.292969 C 28.058594 3.050781 28.011719 2.820312 27.917969 2.59375 C 27.824219 2.371094 27.691406 2.175781 27.519531 2.003906 C 27.347656 1.835938 27.148438 1.703125 26.925781 1.613281 C 26.699219 1.523438 26.464844 1.480469 26.222656 1.484375 Z M 3.78125 13.066406 C 3.539062 13.0625 3.308594 13.105469 3.082031 13.199219 C 2.859375 13.289062 2.660156 13.417969 2.488281 13.585938 C 2.3125 13.757812 2.179688 13.953125 2.085938 14.179688 C 1.992188 14.402344 1.945312 14.632812 1.945312 14.875 C 1.945312 15.117188 1.992188 15.351562 2.085938 15.574219 C 2.179688 15.796875 2.3125 15.996094 2.488281 16.164062 C 2.660156 16.335938 2.859375 16.464844 3.082031 16.554688 C 3.308594 16.648438 3.539062 16.691406 3.78125 16.6875 L 26.222656 16.6875 C 26.464844 16.691406 26.699219 16.648438 26.925781 16.554688 C 27.148438 16.464844 27.347656 16.335938 27.519531 16.164062 C 27.691406 15.996094 27.824219 15.796875 27.917969 15.574219 C 28.011719 15.351562 28.058594 15.117188 28.058594 14.875 C 28.058594 14.632812 28.011719 14.402344 27.917969 14.179688 C 27.824219 13.953125 27.691406 13.757812 27.519531 13.585938 C 27.347656 13.417969 27.148438 13.289062 26.925781 13.199219 C 26.699219 13.105469 26.464844 13.0625 26.222656 13.066406 Z M 3.78125 23.925781 C 3.539062 23.921875 3.308594 23.964844 3.082031 24.054688 C 2.859375 24.144531 2.660156 24.277344 2.488281 24.445312 C 2.3125 24.617188 2.179688 24.8125 2.085938 25.035156 C 1.992188 25.261719 1.945312 25.492188 1.945312 25.734375 C 1.945312 25.976562 1.992188 26.210938 2.085938 26.433594 C 2.179688 26.65625 2.3125 26.855469 2.488281 27.023438 C 2.660156 27.195312 2.859375 27.324219 3.082031 27.414062 C 3.308594 27.503906 3.539062 27.546875 3.78125 27.546875 L 26.222656 27.546875 C 26.464844 27.546875 26.699219 27.503906 26.925781 27.414062 C 27.148438 27.324219 27.347656 27.195312 27.519531 27.023438 C 27.691406 26.855469 27.824219 26.65625 27.917969 26.433594 C 28.011719 26.210938 28.058594 25.976562 28.058594 25.734375 C 28.058594 25.492188 28.011719 25.261719 27.917969 25.035156 C 27.824219 24.8125 27.691406 24.617188 27.519531 24.445312 C 27.347656 24.277344 27.148438 24.144531 26.925781 24.054688 C 26.699219 23.964844 26.464844 23.921875 26.222656 23.925781 Z M 3.78125 23.925781 " fill-opacity="1" fill-rule="nonzero"/></g></svg>